<?xml version="1.0" standalone="no"?>
<!DOCTYPE svg PUBLIC "-//W3C//DTD SVG 20010904//EN"
 "http://www.w3.org/TR/2001/REC-SVG-20010904/DTD/svg10.dtd">
<svg version="1.0" xmlns="http://www.w3.org/2000/svg"
 width="700.000000pt" height="700.000000pt" viewBox="0 0 700.000000 700.000000"
 preserveAspectRatio="xMidYMid meet">
<metadata>
Created by potrace 1.14, written by Peter Selinger 2001-2017
</metadata>
<g transform="translate(0.000000,700.000000) scale(0.100000,-0.100000)"
fill="#000000" stroke="none">
<path d="M4660 4074 c-219 -47 -401 -222 -451 -434 -18 -76 -16 -231 5 -309
66 -255 280 -425 551 -438 122 -6 206 11 320 67 79 38 215 140 215 161 0 6
-48 62 -106 124 l-107 113 -63 -48 c-116 -89 -240 -105 -326 -43 -130 94 -146
318 -30 434 101 101 244 88 365 -34 40 -39 51 -46 64 -36 8 7 56 62 106 123
l92 110 3 -52 3 -52 165 0 164 0 0 -425 0 -425 190 0 190 0 0 425 0 425 165 0
165 0 0 155 0 155 -520 0 -520 0 0 -90 0 -90 -56 45 c-160 130 -381 183 -584
139z"/>
<path d="M732 3493 l3 -578 493 -3 492 -2 0 150 0 150 -300 0 -300 0 0 65 0
65 265 0 265 0 0 150 0 150 -265 0 -265 0 0 65 0 65 295 0 295 0 0 150 0 150
-490 0 -490 0 2 -577z"/>
<path d="M3127 3508 c-130 -310 -239 -571 -243 -581 -6 -16 6 -17 191 -15
l198 3 30 83 30 82 212 0 213 0 28 -82 29 -83 204 -3 c198 -2 203 -2 198 17
-3 11 -107 272 -233 580 l-228 561 -196 0 -196 0 -237 -562z m482 -2 c28 -82
50 -151 48 -153 -3 -2 -54 -2 -114 -1 l-111 3 57 157 c31 86 59 154 62 150 3
-4 29 -74 58 -156z"/>
<path d="M2396 3813 c-28 -10 -71 -37 -102 -66 l-54 -49 0 61 0 61 -185 0
-185 0 0 -455 0 -455 185 0 185 0 0 228 c0 125 5 245 10 267 23 102 150 131
195 45 12 -24 15 -76 15 -285 l0 -255 188 2 187 3 0 325 c0 365 -3 382 -73
475 -55 73 -128 108 -235 112 -58 2 -96 -2 -131 -14z"/>
</g>
</svg>
